<svg id="SvgjsSvg1001" width="288" height="288" xmlns="http://www.w3.org/2000/svg" version="1.1" xmlns:xlink="http://www.w3.org/1999/xlink" xmlns:svgjs="http://svgjs.com/svgjs"><defs id="SvgjsDefs1002"></defs><g id="SvgjsG1008" transform="matrix(0.9167,0,0,0.9167,11.995200000000011,11.995200000000011)"><svg xmlns="http://www.w3.org/2000/svg" xmlns:xlink="http://www.w3.org/1999/xlink" viewBox="0 0 48 48" width="288" height="288"><defs><path id="a" fill="#ffffff" d="M24,4C13.738,4,6,9.159,6,16c0,8.897,12.28,28,18,28c6.056,0,18-18.579,18-28C42,9.159,34.262,4,24,4z M24,42 C19.784,42,8,24.186,8,16c0-5.701,6.879-10,16-10s16,4.299,16,10C40,25.288,28.087,42,24,42z M34.102,23.577l1.812,0.844 C34.855,26.698,29.35,38.059,25,38.059v-2C26.585,36.059,30.515,31.287,34.102,23.577z M38,17h-2c0-4.056-5.047-7-12-7V8 C32.243,8,38,11.701,38,17z" class="color000 svgShape"></path></defs><use xlink:href="#a"></use></svg></g></svg>